<?xml version="1.0" encoding="UTF-8" standalone="no"?>
<svg
   xmlns:dc="http://purl.org/dc/elements/1.1/"
   xmlns:cc="http://creativecommons.org/ns#"
   xmlns:rdf="http://www.w3.org/1999/02/22-rdf-syntax-ns#"
   xmlns:svg="http://www.w3.org/2000/svg"
   xmlns="http://www.w3.org/2000/svg"
   id="svg8"
   version="1.1"
   viewBox="0 0 420 210"
   height="210mm"
   width="420mm">
  <defs
     id="defs2" />
  <metadata
     id="metadata5">
    <rdf:RDF>
      <cc:Work
         rdf:about="">
        <dc:format>image/svg+xml</dc:format>
        <dc:type
           rdf:resource="http://purl.org/dc/dcmitype/StillImage" />
        <dc:title></dc:title>
      </cc:Work>
    </rdf:RDF>
  </metadata>
  <g
     transform="translate(0,-87)"
     id="layer1">
    <g
       transform="translate(-6.3655361,-3.6788806)"
       id="g835">
      <path
         style="fill:none;stroke:#000000;stroke-width:10;stroke-linecap:butt;stroke-linejoin:miter;stroke-miterlimit:4;stroke-dasharray:none;stroke-opacity:1"
         d="m 373.44048,197.21429 c 0,0 -148.16667,-19.65476 -159.50596,-6.80357 -11.33928,12.85119 -0.75595,32.50595 -0.75595,32.50595"
         id="path819" />
      <path
         style="fill:none;stroke:#000000;stroke-width:10;stroke-linecap:butt;stroke-linejoin:miter;stroke-miterlimit:4;stroke-dasharray:none;stroke-opacity:1"
         d="m 182.94047,163.19643 c 0,0 -1.5119,41.57738 2.26786,45.35715 3.77976,3.77976 3.77976,3.77976 3.77976,3.77976"
         id="path821" />
      <path
         style="fill:none;stroke:#000000;stroke-width:10;stroke-linecap:butt;stroke-linejoin:miter;stroke-miterlimit:4;stroke-dasharray:none;stroke-opacity:1"
         d="m 162.52976,200.2381 c -4.53571,0 -92.982143,17.3869 -99.785712,7.55952"
         id="path827" />
      <path
         style="opacity:1;fill:#333333;fill-opacity:1;stroke:#000000;stroke-width:5.63982391;stroke-linecap:round;stroke-linejoin:round;stroke-miterlimit:4;stroke-dasharray:none;stroke-dashoffset:0;stroke-opacity:1"
         id="path829"
         d="m 324.21563,222.78463 a 2.5580628,2.771235 0 0 1 -2.58056,2.73837 2.5580628,2.771235 0 0 1 -2.53534,-2.7875 2.5580628,2.771235 0 0 1 2.56557,-2.75485 2.5580628,2.771235 0 0 1 2.55051,2.77123 h -2.55806 z" />
    </g>
  </g>
</svg>
