<?xml version="1.0" encoding="UTF-8" standalone="no"?>
<svg xmlns="http://www.w3.org/2000/svg" viewBox="0 0 540.15625 393.26886">
 <path d="m310.66,392.62c-21.81-2.53-36.64-8.13-49.12-18.57-12.98-10.87-21.84-26.44-27.94-49.15-4.13-15.39-5.46-24.55-8.01-55.13-0.37-4.4-0.98-10.93-1.35-14.5l-0.69-6.5-1.59,3.5c-1.61,3.57-11.27,17.21-19.01,26.85-7.29,9.08-35.07,33.94-49.87,44.63-18.52,13.37-47.51,28.82-66.92,35.68-16.2,5.72-38.68,7.65-52.15,4.48-16.39-3.86-27.747-17.95-32.341-40.14-4.795-23.16,0.656-50,17.771-87.5,1.39-3.03,4.84-10.68,7.68-17,12.37-27.56,22.63-43.74,25.76-40.61,0.64,0.64-2.62,8.21-10.22,23.67-2.86,5.81-6.67,14.14-8.47,18.5-1.79,4.37-4.84,11.76-6.76,16.44-6.12,14.87-11.24,30.21-12.83,38.48-1.57,8.18-2.02,23.23-0.84,28.24,2.08,8.84,8.38,15.31,19.9,20.43,6.95,3.09,25.29,3.76,37.95,1.39,13.74-2.58,35.41-10.67,48.89-18.25,3.22-1.81,6.06-3.29,6.32-3.29s9.12-5.83,19.69-12.95c12.87-8.68,22.67-16.19,29.68-22.75,11.86-11.09,23.11-22.88,27.5-28.8,1.63-2.2,3.52-4.59,4.2-5.31s2.91-4.09,4.96-7.5c3.22-5.35,3.71-6.94,3.54-11.69-0.23-6.82-5.64-29.18-12.35-51-14.36-46.74-14.34-46.69-31.64-84.09-2.14-4.63-4.48-9.99-5.21-11.91-0.72-1.93-3.33-8.1-5.79-13.72l-4.47-10.22,5.22-21.28c2.87-11.71,5.57-21.91,5.99-22.68,0.55-1,1.55-0.01,3.56,3.5,1.54,2.7,3.36,5.57,4.04,6.4,4.49,5.41,20.79,37.29,30.76,60.17,13.31,30.55,26.34,81.61,30.36,119.02,0.94,8.71,2.12,15.7,2.63,15.53s1.61-2.09,2.46-4.26c3.04-7.87,12.36-17.89,26.7-28.72,7.07-5.34,22.17-15.68,30.51-20.89,13.26-8.29,50.96-26.91,71.5-35.33,4.4-1.8,9.23-3.85,10.73-4.55,2.51-1.17,2.91-1.06,4.8,1.34l2.06,2.62,5.2-2.04c12.95-5.08,13.9-5.66,12.72-7.86-0.59-1.12-1.53-2.03-2.08-2.03-0.67,0-0.67,0.62,0,1.87,0.89,1.67,0.12,2.22-7.12,5.08l-8.12,3.21-2.86-3.33c-3.69-4.29-11.47-20.02-12.77-25.83-3.35-14.9,1.13-30.95,9.9-35.48,9.91-5.13,31.6-1.18,53.54,9.74,7.52,3.74,26.16,14.91,32.39,19.41,0.56,0.4-8.03,32.64-8.98,33.72-0.43,0.48-9.03,3.68-19.1,7.11-10.07,3.42-20.56,7.09-23.31,8.15l-5,1.92,0.33,6.48c0.54,10.32-4.55,20.13-6.19,11.94-0.33-1.66-1.57-5.28-2.77-8.05-1.65-3.84-2.54-4.89-3.77-4.38-0.88,0.36-8.58,3.32-17.1,6.57-26.89,10.25-51.82,22.06-63.71,30.16-4.51,3.08-10.13,6.69-12.5,8.03-12.69,7.19-29.79,17.95-29.79,18.76,0,0.56,12.21,0.73,30.75,0.43,16.91-0.28,65.4-0.76,107.75-1.08s87.68-1.11,100.75-1.75c18.26-0.91,23.75-0.91,23.75,0,0,0.65-1.37,3.8-3.04,7s-5.42,11.21-8.35,17.81c-6.1,13.75-3.73,12.3-23.56,14.42-18.03,1.92-60.47,11.59-79.55,18.12-4.95,1.69-16.43,5.32-25.5,8.05-9.08,2.73-18.75,5.82-21.5,6.87-2.75,1.04-8.6,3.25-13,4.9-8.04,3.03-14.89,5.96-26,11.14-3.3,1.54-9.83,4.57-14.5,6.74-19.27,8.91-39.49,24.41-45.74,35.08l-2.65,4.52,4.31,3.71c11.62,10.01,38.79,20.96,52.02,20.96h3.06v6.84c0,3.77-0.3,12.32-0.66,19l-0.65,12.16-10.6-0.15c-5.82-0.08-11.94-0.31-13.59-0.5zm-44.6-65.83c0.15-13.67,6.04-25.86,18.69-38.7,10.59-10.74,23.5-20,37.91-27.19,17.92-8.94,44.88-21.02,51.77-23.19,4.93-1.56,5.73-2.15,5.73-4.27v-2.46l-57.25,0.66c-31.49,0.36-62.6,0.95-69.13,1.29l-11.88,0.64,0.67,6.1c0.37,3.35,1.31,13.07,2.09,21.6,2.56,27.74,3.98,36.07,8.71,51,2.68,8.46,10.22,22.97,11.94,22.99,0.36,0.01,0.7-3.81,0.75-8.47zm149.16-229.67,12.19-5.15-2.37-1.89c-7.12-5.64-23.19-10.57-31.05-9.51-5.16,0.69-5.6,1.23-3.19,3.95,1.09,1.24,4.2,5.73,6.92,9.99,2.72,4.25,5.02,7.74,5.12,7.75,0.11,0,5.68-2.31,12.38-5.14zm-147.09-54.23c-4.78-1.55-5.8-4.33-7.14-19.39-1.13-12.7-1.11-13.05,1.09-16.6,1.23-2,2.58-3.63,3-3.63s1.05,6.58,1.4,14.62c0.37,8.59,1.1,15.19,1.78,16,2.77,3.35,11.59,0.43,10.51-3.48-0.25-0.9-0.75-5.96-1.12-11.23-0.52-7.56-0.33-10.37,0.91-13.32,0.85-2.05,1.96-3.48,2.46-3.18,0.49,0.31,1.2,6.3,1.57,13.32s1.15,13.99,1.73,15.49c1.36,3.5,4.26,4.39,7.47,2.28,2.28-1.49,2.48-2.13,1.98-6.33-1.86-15.56-1.78-19.56,0.47-23.17,2.08-3.32,2.23-3.39,2.99-1.34,0.44,1.19,1.11,8.67,1.5,16.61,0.63,12.92,0.51,14.78-1.1,17.51-0.99,1.68-2.88,3.54-4.19,4.13-3.49,1.59-8.9,1.33-10.76-0.53-1.48-1.48-1.75-1.48-3.43,0.03-2.86,2.59-7.25,3.46-11.12,2.21z"/>
</svg>
