<?xml version="1.0" encoding="iso-8859-1"?>
<!-- Generator: Adobe Illustrator 19.0.0, SVG Export Plug-In . SVG Version: 6.00 Build 0)  -->
<svg version="1.1" id="Layer_1" xmlns="http://www.w3.org/2000/svg" xmlns:xlink="http://www.w3.org/1999/xlink" x="0px" y="0px"
	 viewBox="0 0 420.751 420.751" style="enable-background:new 0 0 420.751 420.751;" xml:space="preserve">
<g>
	<g>
		<path d="M374.431,130.094c5.233,0,9.969-2.12,13.399-5.55c3.43-3.43,5.55-8.166,5.55-13.399c0-10.465-8.484-18.944-18.949-18.944
			s-18.949,8.484-18.949,18.944C355.482,121.61,363.965,130.094,374.431,130.094z"/>
		<path d="M99.092,328.642c-9.8,0-17.741,7.946-17.741,17.741c0,9.795,7.946,17.741,17.741,17.741s17.741-7.941,17.741-17.741
			C116.833,336.584,108.892,328.642,99.092,328.642z"/>
		<path d="M365.962,140.385v152.873h16.937V140.385c-2.56,1.29-5.407,2.084-8.468,2.084
			C371.369,142.469,368.522,141.67,365.962,140.385z"/>
		<path d="M245.74,328.642c-9.8,0-17.741,7.946-17.741,17.741c0,9.795,7.941,17.741,17.741,17.741s17.741-7.941,17.741-17.741
			C263.48,336.584,255.539,328.642,245.74,328.642z"/>
		<path d="M332.037,11.658H9.907C4.434,11.658,0,16.092,0,21.565v387.528h341.949V21.565
			C341.944,16.092,337.51,11.658,332.037,11.658z M231.511,35.82c8.238,0,14.915,6.676,14.915,14.915s-6.677,14.915-14.915,14.915
			c-8.238,0-14.915-6.676-14.915-14.915C216.597,42.496,223.273,35.82,231.511,35.82z M172.416,24.064
			c14.725,0,26.665,11.94,26.665,26.665c0,14.725-11.94,26.665-26.665,26.665c-14.725,0-26.665-11.94-26.665-26.665
			C145.751,36.004,157.691,24.064,172.416,24.064z M113.321,35.82c8.238,0,14.915,6.676,14.915,14.915s-6.677,14.915-14.915,14.915
			c-8.238,0-14.915-6.676-14.915-14.915C98.412,42.496,105.088,35.82,113.321,35.82z M99.092,374.41
			c-15.478,0-28.022-12.544-28.022-28.022s12.549-28.022,28.022-28.022c15.478,0,28.022,12.549,28.022,28.022
			C127.114,361.861,114.57,374.41,99.092,374.41z M172.416,374.41c-15.478,0-28.022-12.544-28.022-28.022
			s12.544-28.022,28.022-28.022c15.478,0,28.022,12.549,28.022,28.022C200.438,361.861,187.894,374.41,172.416,374.41z
			 M245.74,374.41c-15.478,0-28.022-12.544-28.022-28.022s12.544-28.022,28.022-28.022c15.478,0,28.022,12.549,28.022,28.022
			C273.761,361.861,261.217,374.41,245.74,374.41z M320.323,280.407H24.509V90.987h295.813V280.407z"/>
		<path d="M172.416,328.642c-9.8,0-17.741,7.946-17.741,17.741c0,9.795,7.946,17.741,17.741,17.741
			c9.8,0,17.741-7.941,17.741-17.741C190.157,336.584,182.216,328.642,172.416,328.642z"/>
		<path d="M113.326,108.006h-0.005H36.618v155.121h76.708V108.006z M103.434,172.104c-0.01,0-0.015,0-0.02,0
			c0,0.107,0.02,0.195,0.02,0.302c0,18.186-27.192,24.827-16.246,50.714H57.718c-3.722-23.219,28.667-35.164,30.853-47.8
			c-3.195,1.244-6.359,2.381-11.069,2.381c-9.651,0-10.593-4.721-23.634-5.478v9.175h-7.363v-20.7h7.363v0.113
			c13.041,0.763,13.983,5.478,23.634,5.478c10.491,0,13.292-5.596,25.933-5.596V172.104z"/>
		<path d="M381.348,303.278h-28.437v78.812h28.437c21.765,0,39.404-17.643,39.404-39.404
			C420.756,320.922,403.113,303.278,381.348,303.278z"/>
		<path d="M303.324,108.006h-0.005h-76.703v155.121h76.708V108.006z M293.432,172.104c-0.01,0-0.015,0-0.02,0
			c0,0.107,0.02,0.195,0.02,0.302c0,18.186-27.192,24.827-16.246,50.714h-29.471c-3.722-23.219,28.667-35.164,30.853-47.8
			c-3.195,1.244-6.359,2.381-11.069,2.381c-9.651,0-10.593-4.721-23.634-5.478v9.175h-7.363v-20.7h7.363v0.113
			c13.041,0.763,13.988,5.478,23.634,5.478c10.491,0,13.292-5.596,25.933-5.596V172.104z"/>
		<path d="M208.323,108.006h-76.708v155.121h76.708V108.006z M198.436,172.104c-0.01,0-0.015,0-0.021,0
			c0,0.107,0.021,0.195,0.021,0.302c0,18.186-27.192,24.827-16.246,50.714h-29.471c-3.722-23.219,28.667-35.164,30.853-47.8
			c-3.195,1.244-6.359,2.381-11.069,2.381c-9.646,0-10.593-4.721-23.634-5.478v9.175h-7.363v-20.7h7.363v0.113
			c13.041,0.763,13.988,5.478,23.634,5.478c10.491,0,13.292-5.596,25.933-5.596V172.104z"/>
	</g>
</g>
<g>
</g>
<g>
</g>
<g>
</g>
<g>
</g>
<g>
</g>
<g>
</g>
<g>
</g>
<g>
</g>
<g>
</g>
<g>
</g>
<g>
</g>
<g>
</g>
<g>
</g>
<g>
</g>
<g>
</g>
</svg>
